<mxfile host="app.diagrams.net" agent="Mozilla/5.0 (Macintosh; Intel Mac OS X 10_15_7) AppleWebKit/537.36 (KHTML, like Gecko) Chrome/130.0.0.0 Safari/537.36" version="24.8.6">
  <diagram id="C5RBs43oDa-KdzZeNtuy" name="Page-1">
    <mxGraphModel dx="2620" dy="1024" grid="1" gridSize="10" guides="1" tooltips="1" connect="1" arrows="1" fold="1" page="1" pageScale="1" pageWidth="827" pageHeight="1169" math="0" shadow="0">
      <root>
        <mxCell id="WIyWlLk6GJQsqaUBKTNV-0" />
        <mxCell id="WIyWlLk6GJQsqaUBKTNV-1" parent="WIyWlLk6GJQsqaUBKTNV-0" />
        <mxCell id="h92ZNd57hAfHwcITS-Yp-35" value="" style="group" parent="WIyWlLk6GJQsqaUBKTNV-1" vertex="1" connectable="0">
          <mxGeometry x="-190" y="89" width="700" height="495" as="geometry" />
        </mxCell>
        <mxCell id="h92ZNd57hAfHwcITS-Yp-18" value="conn state = 1&amp;nbsp;/* not consumed */" style="text;html=1;align=center;verticalAlign=middle;whiteSpace=wrap;rounded=0;fillColor=#f5f5f5;fontColor=#333333;strokeColor=#9E9E9E;" parent="h92ZNd57hAfHwcITS-Yp-35" vertex="1">
          <mxGeometry y="70" width="220" height="30" as="geometry" />
        </mxCell>
        <mxCell id="h92ZNd57hAfHwcITS-Yp-0" value="&lt;font style=&quot;font-size: 15px;&quot;&gt;start&lt;/font&gt;" style="strokeWidth=2;html=1;shape=mxgraph.flowchart.start_1;whiteSpace=wrap;" parent="h92ZNd57hAfHwcITS-Yp-35" vertex="1">
          <mxGeometry x="60" width="100" height="60" as="geometry" />
        </mxCell>
        <mxCell id="h92ZNd57hAfHwcITS-Yp-1" value="&lt;font style=&quot;font-size: 15px;&quot;&gt;consume_socket&lt;/font&gt;" style="rounded=1;whiteSpace=wrap;html=1;absoluteArcSize=1;arcSize=14;strokeWidth=2;" parent="h92ZNd57hAfHwcITS-Yp-35" vertex="1">
          <mxGeometry x="20" y="110" width="180" height="50" as="geometry" />
        </mxCell>
        <mxCell id="h92ZNd57hAfHwcITS-Yp-3" value="&lt;font style=&quot;font-size: 15px;&quot;&gt;init&amp;nbsp;connection 1&lt;/font&gt;" style="rounded=1;whiteSpace=wrap;html=1;absoluteArcSize=1;arcSize=14;strokeWidth=2;" parent="h92ZNd57hAfHwcITS-Yp-35" vertex="1">
          <mxGeometry x="20" y="220" width="180" height="50" as="geometry" />
        </mxCell>
        <mxCell id="h92ZNd57hAfHwcITS-Yp-14" style="edgeStyle=orthogonalEdgeStyle;rounded=0;orthogonalLoop=1;jettySize=auto;html=1;entryX=1;entryY=0.5;entryDx=0;entryDy=0;" parent="h92ZNd57hAfHwcITS-Yp-35" source="h92ZNd57hAfHwcITS-Yp-4" target="h92ZNd57hAfHwcITS-Yp-1" edge="1">
          <mxGeometry relative="1" as="geometry">
            <Array as="points">
              <mxPoint x="220" y="355" />
              <mxPoint x="220" y="135" />
            </Array>
          </mxGeometry>
        </mxCell>
        <mxCell id="h92ZNd57hAfHwcITS-Yp-15" value="loop" style="edgeLabel;html=1;align=center;verticalAlign=middle;resizable=0;points=[];" parent="h92ZNd57hAfHwcITS-Yp-14" vertex="1" connectable="0">
          <mxGeometry x="0.1216" y="1" relative="1" as="geometry">
            <mxPoint as="offset" />
          </mxGeometry>
        </mxCell>
        <mxCell id="h92ZNd57hAfHwcITS-Yp-4" value="&lt;font style=&quot;font-size: 15px;&quot;&gt;process connection&lt;/font&gt;" style="rounded=1;whiteSpace=wrap;html=1;absoluteArcSize=1;arcSize=14;strokeWidth=2;" parent="h92ZNd57hAfHwcITS-Yp-35" vertex="1">
          <mxGeometry x="20" y="330" width="180" height="50" as="geometry" />
        </mxCell>
        <mxCell id="h92ZNd57hAfHwcITS-Yp-5" value="&lt;font style=&quot;font-size: 15px;&quot;&gt;terminator&lt;/font&gt;" style="strokeWidth=2;html=1;shape=mxgraph.flowchart.terminator;whiteSpace=wrap;" parent="h92ZNd57hAfHwcITS-Yp-35" vertex="1">
          <mxGeometry x="60" y="430" width="100" height="60" as="geometry" />
        </mxCell>
        <mxCell id="h92ZNd57hAfHwcITS-Yp-6" value="" style="strokeWidth=2;html=1;shape=mxgraph.flowchart.annotation_2;align=left;labelPosition=right;pointerEvents=1;" parent="h92ZNd57hAfHwcITS-Yp-35" vertex="1">
          <mxGeometry x="230" y="241.25" width="30" height="227.5" as="geometry" />
        </mxCell>
        <mxCell id="h92ZNd57hAfHwcITS-Yp-7" value="" style="endArrow=classic;html=1;rounded=0;exitX=0.5;exitY=1;exitDx=0;exitDy=0;exitPerimeter=0;entryX=0.5;entryY=0;entryDx=0;entryDy=0;" parent="h92ZNd57hAfHwcITS-Yp-35" source="h92ZNd57hAfHwcITS-Yp-0" target="h92ZNd57hAfHwcITS-Yp-1" edge="1">
          <mxGeometry width="50" height="50" relative="1" as="geometry">
            <mxPoint x="160" y="240" as="sourcePoint" />
            <mxPoint x="210" y="190" as="targetPoint" />
          </mxGeometry>
        </mxCell>
        <mxCell id="h92ZNd57hAfHwcITS-Yp-8" value="" style="endArrow=classic;html=1;rounded=0;exitX=0.5;exitY=1;exitDx=0;exitDy=0;" parent="h92ZNd57hAfHwcITS-Yp-35" source="h92ZNd57hAfHwcITS-Yp-1" edge="1">
          <mxGeometry width="50" height="50" relative="1" as="geometry">
            <mxPoint x="109.41" y="170" as="sourcePoint" />
            <mxPoint x="110" y="220" as="targetPoint" />
          </mxGeometry>
        </mxCell>
        <mxCell id="h92ZNd57hAfHwcITS-Yp-9" value="" style="endArrow=classic;html=1;rounded=0;exitX=0.5;exitY=1;exitDx=0;exitDy=0;entryX=0.5;entryY=0;entryDx=0;entryDy=0;" parent="h92ZNd57hAfHwcITS-Yp-35" source="h92ZNd57hAfHwcITS-Yp-3" target="h92ZNd57hAfHwcITS-Yp-4" edge="1">
          <mxGeometry width="50" height="50" relative="1" as="geometry">
            <mxPoint x="120" y="170" as="sourcePoint" />
            <mxPoint x="120" y="230" as="targetPoint" />
          </mxGeometry>
        </mxCell>
        <mxCell id="h92ZNd57hAfHwcITS-Yp-13" style="edgeStyle=orthogonalEdgeStyle;rounded=0;orthogonalLoop=1;jettySize=auto;html=1;exitX=0;exitY=0.5;exitDx=0;exitDy=0;entryX=0.5;entryY=0;entryDx=0;entryDy=0;entryPerimeter=0;" parent="h92ZNd57hAfHwcITS-Yp-35" source="h92ZNd57hAfHwcITS-Yp-1" target="h92ZNd57hAfHwcITS-Yp-5" edge="1">
          <mxGeometry relative="1" as="geometry">
            <Array as="points">
              <mxPoint y="135" />
              <mxPoint y="410" />
              <mxPoint x="110" y="410" />
            </Array>
          </mxGeometry>
        </mxCell>
        <mxCell id="h92ZNd57hAfHwcITS-Yp-16" value="false" style="edgeLabel;html=1;align=center;verticalAlign=middle;resizable=0;points=[];" parent="h92ZNd57hAfHwcITS-Yp-13" vertex="1" connectable="0">
          <mxGeometry x="-0.1688" y="-3" relative="1" as="geometry">
            <mxPoint as="offset" />
          </mxGeometry>
        </mxCell>
        <mxCell id="h92ZNd57hAfHwcITS-Yp-20" value="&lt;font style=&quot;font-size: 15px;&quot;&gt;process&lt;/font&gt;" style="rounded=1;whiteSpace=wrap;html=1;" parent="h92ZNd57hAfHwcITS-Yp-35" vertex="1">
          <mxGeometry x="270" y="218.69" width="180" height="50" as="geometry" />
        </mxCell>
        <mxCell id="h92ZNd57hAfHwcITS-Yp-21" style="edgeStyle=orthogonalEdgeStyle;rounded=0;orthogonalLoop=1;jettySize=auto;html=1;entryX=0.5;entryY=0;entryDx=0;entryDy=0;exitX=0.5;exitY=1;exitDx=0;exitDy=0;" parent="h92ZNd57hAfHwcITS-Yp-35" source="h92ZNd57hAfHwcITS-Yp-20" target="h92ZNd57hAfHwcITS-Yp-20" edge="1">
          <mxGeometry relative="1" as="geometry">
            <Array as="points">
              <mxPoint x="360" y="289.94" />
              <mxPoint x="260" y="289.94" />
              <mxPoint x="260" y="189.94" />
              <mxPoint x="360" y="189.94" />
            </Array>
          </mxGeometry>
        </mxCell>
        <mxCell id="h92ZNd57hAfHwcITS-Yp-22" value="keep_alive" style="edgeLabel;html=1;align=center;verticalAlign=middle;resizable=0;points=[];" parent="h92ZNd57hAfHwcITS-Yp-21" vertex="1" connectable="0">
          <mxGeometry x="0.4646" y="4" relative="1" as="geometry">
            <mxPoint as="offset" />
          </mxGeometry>
        </mxCell>
        <mxCell id="h92ZNd57hAfHwcITS-Yp-27" value="&lt;font style=&quot;font-size: 15px;&quot;&gt;close&amp;nbsp;connection&lt;/font&gt;" style="rounded=1;whiteSpace=wrap;html=1;" parent="h92ZNd57hAfHwcITS-Yp-35" vertex="1">
          <mxGeometry x="270" y="445" width="180" height="50" as="geometry" />
        </mxCell>
        <mxCell id="h92ZNd57hAfHwcITS-Yp-28" value="内部需要释放锁" style="text;html=1;align=center;verticalAlign=middle;whiteSpace=wrap;rounded=0;fillColor=#dae8fc;strokeColor=#6c8ebf;" parent="h92ZNd57hAfHwcITS-Yp-35" vertex="1">
          <mxGeometry x="310" y="410" width="120" height="30" as="geometry" />
        </mxCell>
        <mxCell id="h92ZNd57hAfHwcITS-Yp-29" value="&lt;div&gt;conn state = 6 /* to close */&lt;/div&gt;&lt;div&gt;....&lt;/div&gt;conn state = 9 /* closed */" style="text;html=1;align=center;verticalAlign=middle;whiteSpace=wrap;rounded=0;fillColor=#f5f5f5;fontColor=#333333;strokeColor=#9E9E9E;" parent="h92ZNd57hAfHwcITS-Yp-35" vertex="1">
          <mxGeometry x="460" y="440" width="220" height="55" as="geometry" />
        </mxCell>
        <mxCell id="h92ZNd57hAfHwcITS-Yp-32" value="" style="group" parent="h92ZNd57hAfHwcITS-Yp-35" vertex="1" connectable="0">
          <mxGeometry x="460" y="110" width="240" height="260" as="geometry" />
        </mxCell>
        <mxCell id="h92ZNd57hAfHwcITS-Yp-30" value="" style="rounded=0;whiteSpace=wrap;html=1;fillColor=#fff2cc;strokeColor=#d6b656;container=0;" parent="h92ZNd57hAfHwcITS-Yp-32" vertex="1">
          <mxGeometry width="240" height="260" as="geometry" />
        </mxCell>
        <mxCell id="h92ZNd57hAfHwcITS-Yp-19" value="conn state = 2 /* init */" style="text;html=1;align=center;verticalAlign=middle;whiteSpace=wrap;rounded=0;fillColor=#f5f5f5;fontColor=#333333;strokeColor=#9E9E9E;container=0;" parent="h92ZNd57hAfHwcITS-Yp-32" vertex="1">
          <mxGeometry x="10" y="20" width="220" height="30" as="geometry" />
        </mxCell>
        <mxCell id="h92ZNd57hAfHwcITS-Yp-23" value="conn state = 3 /* ready */" style="text;html=1;align=center;verticalAlign=middle;whiteSpace=wrap;rounded=0;fillColor=#f5f5f5;fontColor=#333333;strokeColor=#9E9E9E;container=0;" parent="h92ZNd57hAfHwcITS-Yp-32" vertex="1">
          <mxGeometry x="10" y="60" width="220" height="30" as="geometry" />
        </mxCell>
        <mxCell id="h92ZNd57hAfHwcITS-Yp-24" value="conn state = 4 /* processing */" style="text;html=1;align=center;verticalAlign=middle;whiteSpace=wrap;rounded=0;fillColor=#f5f5f5;fontColor=#333333;strokeColor=#9E9E9E;container=0;" parent="h92ZNd57hAfHwcITS-Yp-32" vertex="1">
          <mxGeometry x="10" y="100" width="220" height="30" as="geometry" />
        </mxCell>
        <mxCell id="h92ZNd57hAfHwcITS-Yp-25" value="handle_request(conn);" style="text;whiteSpace=wrap;verticalAlign=middle;fillColor=#d5e8d4;strokeColor=#82b366;align=center;container=0;" parent="h92ZNd57hAfHwcITS-Yp-32" vertex="1">
          <mxGeometry x="40" y="150" width="150" height="40" as="geometry" />
        </mxCell>
        <mxCell id="h92ZNd57hAfHwcITS-Yp-26" value="conn state = 5 /* processed */" style="text;html=1;align=center;verticalAlign=middle;whiteSpace=wrap;rounded=0;fillColor=#f5f5f5;fontColor=#333333;strokeColor=#9E9E9E;container=0;" parent="h92ZNd57hAfHwcITS-Yp-32" vertex="1">
          <mxGeometry x="10" y="210" width="220" height="30" as="geometry" />
        </mxCell>
        <mxCell id="h92ZNd57hAfHwcITS-Yp-34" value="&lt;div style=&quot;&quot;&gt;&lt;span style=&quot;background-color: initial;&quot;&gt;每个线程初始分配一个 connection 变量，后续只赋值&lt;/span&gt;&lt;/div&gt;" style="text;whiteSpace=wrap;html=1;fillColor=#dae8fc;strokeColor=#6c8ebf;align=center;" parent="h92ZNd57hAfHwcITS-Yp-35" vertex="1">
          <mxGeometry x="250" y="70" width="310" height="30" as="geometry" />
        </mxCell>
        <mxCell id="U1w5Cl4XXdJ5cNv1xuHd-0" value="" style="endArrow=none;html=1;rounded=0;" edge="1" parent="WIyWlLk6GJQsqaUBKTNV-1">
          <mxGeometry width="50" height="50" relative="1" as="geometry">
            <mxPoint x="-280" y="1830" as="sourcePoint" />
            <mxPoint x="-280" y="1170" as="targetPoint" />
          </mxGeometry>
        </mxCell>
        <mxCell id="U1w5Cl4XXdJ5cNv1xuHd-1" value="" style="endArrow=none;html=1;rounded=0;" edge="1" parent="WIyWlLk6GJQsqaUBKTNV-1">
          <mxGeometry width="50" height="50" relative="1" as="geometry">
            <mxPoint x="-590" y="1829" as="sourcePoint" />
            <mxPoint x="-590" y="1169" as="targetPoint" />
          </mxGeometry>
        </mxCell>
        <mxCell id="U1w5Cl4XXdJ5cNv1xuHd-2" value="" style="endArrow=none;html=1;rounded=0;" edge="1" parent="WIyWlLk6GJQsqaUBKTNV-1">
          <mxGeometry width="50" height="50" relative="1" as="geometry">
            <mxPoint x="-1" y="1829" as="sourcePoint" />
            <mxPoint x="-1" y="1169" as="targetPoint" />
          </mxGeometry>
        </mxCell>
        <mxCell id="U1w5Cl4XXdJ5cNv1xuHd-3" value="Frontend Thread" style="text;html=1;align=center;verticalAlign=middle;whiteSpace=wrap;rounded=0;fillColor=#d5e8d4;strokeColor=#82b366;" vertex="1" parent="WIyWlLk6GJQsqaUBKTNV-1">
          <mxGeometry x="-650" y="1130" width="120" height="30" as="geometry" />
        </mxCell>
        <mxCell id="U1w5Cl4XXdJ5cNv1xuHd-4" value="Network Thread" style="text;html=1;align=center;verticalAlign=middle;whiteSpace=wrap;rounded=0;fillColor=#dae8fc;strokeColor=#6c8ebf;" vertex="1" parent="WIyWlLk6GJQsqaUBKTNV-1">
          <mxGeometry x="-340" y="1130" width="120" height="30" as="geometry" />
        </mxCell>
        <mxCell id="U1w5Cl4XXdJ5cNv1xuHd-5" value="OSD Thread" style="text;html=1;align=center;verticalAlign=middle;whiteSpace=wrap;rounded=0;fillColor=#ffe6cc;strokeColor=#d79b00;" vertex="1" parent="WIyWlLk6GJQsqaUBKTNV-1">
          <mxGeometry x="-60" y="1130" width="120" height="30" as="geometry" />
        </mxCell>
        <mxCell id="U1w5Cl4XXdJ5cNv1xuHd-14" style="edgeStyle=orthogonalEdgeStyle;rounded=0;orthogonalLoop=1;jettySize=auto;html=1;exitX=0.5;exitY=1;exitDx=0;exitDy=0;exitPerimeter=0;entryX=0.5;entryY=0;entryDx=0;entryDy=0;" edge="1" parent="WIyWlLk6GJQsqaUBKTNV-1" source="U1w5Cl4XXdJ5cNv1xuHd-6" target="U1w5Cl4XXdJ5cNv1xuHd-7">
          <mxGeometry relative="1" as="geometry" />
        </mxCell>
        <mxCell id="U1w5Cl4XXdJ5cNv1xuHd-6" value="&lt;font face=&quot;Times New Roman&quot; style=&quot;font-size: 15px;&quot;&gt;start&lt;/font&gt;" style="strokeWidth=2;html=1;shape=mxgraph.flowchart.start_1;whiteSpace=wrap;" vertex="1" parent="WIyWlLk6GJQsqaUBKTNV-1">
          <mxGeometry x="-745" y="1190" width="80" height="50" as="geometry" />
        </mxCell>
        <mxCell id="U1w5Cl4XXdJ5cNv1xuHd-15" style="edgeStyle=orthogonalEdgeStyle;rounded=0;orthogonalLoop=1;jettySize=auto;html=1;exitX=0.5;exitY=1;exitDx=0;exitDy=0;entryX=0.5;entryY=0;entryDx=0;entryDy=0;" edge="1" parent="WIyWlLk6GJQsqaUBKTNV-1" source="U1w5Cl4XXdJ5cNv1xuHd-7" target="U1w5Cl4XXdJ5cNv1xuHd-8">
          <mxGeometry relative="1" as="geometry" />
        </mxCell>
        <mxCell id="U1w5Cl4XXdJ5cNv1xuHd-7" value="&lt;font face=&quot;Times New Roman&quot; style=&quot;font-size: 15px;&quot;&gt;op_submit&lt;/font&gt;" style="rounded=1;whiteSpace=wrap;html=1;absoluteArcSize=1;arcSize=14;strokeWidth=2;" vertex="1" parent="WIyWlLk6GJQsqaUBKTNV-1">
          <mxGeometry x="-755" y="1270" width="100" height="40" as="geometry" />
        </mxCell>
        <mxCell id="U1w5Cl4XXdJ5cNv1xuHd-16" style="edgeStyle=orthogonalEdgeStyle;rounded=0;orthogonalLoop=1;jettySize=auto;html=1;exitX=0.5;exitY=1;exitDx=0;exitDy=0;entryX=0.5;entryY=0;entryDx=0;entryDy=0;" edge="1" parent="WIyWlLk6GJQsqaUBKTNV-1" source="U1w5Cl4XXdJ5cNv1xuHd-8" target="U1w5Cl4XXdJ5cNv1xuHd-10">
          <mxGeometry relative="1" as="geometry" />
        </mxCell>
        <mxCell id="U1w5Cl4XXdJ5cNv1xuHd-8" value="&lt;font style=&quot;font-size: 12px;&quot; face=&quot;Times New Roman&quot;&gt;op 加入 ops 数组&lt;/font&gt;" style="rounded=1;whiteSpace=wrap;html=1;absoluteArcSize=1;arcSize=14;strokeWidth=2;" vertex="1" parent="WIyWlLk6GJQsqaUBKTNV-1">
          <mxGeometry x="-755" y="1340" width="100" height="40" as="geometry" />
        </mxCell>
        <mxCell id="U1w5Cl4XXdJ5cNv1xuHd-9" value="&lt;div&gt;OSDSession::&lt;b&gt;ops&lt;/b&gt; &lt;span style=&quot;white-space:pre&quot;&gt;&#x9;&#x9;&lt;/span&gt;// pending ops&lt;/div&gt;&lt;div&gt;OSDSession::&lt;b&gt;backoffs&lt;/b&gt;;&lt;span style=&quot;white-space:pre&quot;&gt;&#x9;&lt;/span&gt;// backoff&lt;/div&gt;" style="text;html=1;align=left;verticalAlign=middle;whiteSpace=wrap;rounded=0;fillColor=#fff2cc;strokeColor=#d6b656;" vertex="1" parent="WIyWlLk6GJQsqaUBKTNV-1">
          <mxGeometry x="-541" y="1040" width="230" height="40" as="geometry" />
        </mxCell>
        <mxCell id="U1w5Cl4XXdJ5cNv1xuHd-10" value="&lt;font face=&quot;Times New Roman&quot; style=&quot;font-size: 15px;&quot;&gt;send op&lt;/font&gt;" style="rounded=1;whiteSpace=wrap;html=1;absoluteArcSize=1;arcSize=14;strokeWidth=2;" vertex="1" parent="WIyWlLk6GJQsqaUBKTNV-1">
          <mxGeometry x="-755" y="1410" width="100" height="40" as="geometry" />
        </mxCell>
        <mxCell id="U1w5Cl4XXdJ5cNv1xuHd-18" style="edgeStyle=orthogonalEdgeStyle;rounded=0;orthogonalLoop=1;jettySize=auto;html=1;exitX=0.5;exitY=1;exitDx=0;exitDy=0;exitPerimeter=0;entryX=0.5;entryY=0;entryDx=0;entryDy=0;" edge="1" parent="WIyWlLk6GJQsqaUBKTNV-1" source="U1w5Cl4XXdJ5cNv1xuHd-11" target="U1w5Cl4XXdJ5cNv1xuHd-12">
          <mxGeometry relative="1" as="geometry" />
        </mxCell>
        <mxCell id="U1w5Cl4XXdJ5cNv1xuHd-22" value="false" style="edgeLabel;html=1;align=center;verticalAlign=middle;resizable=0;points=[];" vertex="1" connectable="0" parent="U1w5Cl4XXdJ5cNv1xuHd-18">
          <mxGeometry x="-0.4" y="1" relative="1" as="geometry">
            <mxPoint as="offset" />
          </mxGeometry>
        </mxCell>
        <mxCell id="U1w5Cl4XXdJ5cNv1xuHd-11" value="backoff" style="strokeWidth=2;html=1;shape=mxgraph.flowchart.decision;whiteSpace=wrap;" vertex="1" parent="WIyWlLk6GJQsqaUBKTNV-1">
          <mxGeometry x="-757.5" y="1480" width="105" height="70" as="geometry" />
        </mxCell>
        <mxCell id="U1w5Cl4XXdJ5cNv1xuHd-12" value="加入网络线程待发送列表" style="rounded=1;whiteSpace=wrap;html=1;absoluteArcSize=1;arcSize=14;strokeWidth=2;fillColor=#fff2cc;strokeColor=#d6b656;" vertex="1" parent="WIyWlLk6GJQsqaUBKTNV-1">
          <mxGeometry x="-755" y="1590" width="100" height="40" as="geometry" />
        </mxCell>
        <mxCell id="U1w5Cl4XXdJ5cNv1xuHd-13" value="terminator" style="strokeWidth=2;html=1;shape=mxgraph.flowchart.terminator;whiteSpace=wrap;" vertex="1" parent="WIyWlLk6GJQsqaUBKTNV-1">
          <mxGeometry x="-744.25" y="1696" width="78.5" height="50" as="geometry" />
        </mxCell>
        <mxCell id="U1w5Cl4XXdJ5cNv1xuHd-17" style="edgeStyle=orthogonalEdgeStyle;rounded=0;orthogonalLoop=1;jettySize=auto;html=1;exitX=0.5;exitY=1;exitDx=0;exitDy=0;entryX=0.5;entryY=0;entryDx=0;entryDy=0;entryPerimeter=0;" edge="1" parent="WIyWlLk6GJQsqaUBKTNV-1" source="U1w5Cl4XXdJ5cNv1xuHd-10" target="U1w5Cl4XXdJ5cNv1xuHd-11">
          <mxGeometry relative="1" as="geometry" />
        </mxCell>
        <mxCell id="U1w5Cl4XXdJ5cNv1xuHd-19" style="edgeStyle=orthogonalEdgeStyle;rounded=0;orthogonalLoop=1;jettySize=auto;html=1;exitX=0.5;exitY=1;exitDx=0;exitDy=0;entryX=0.5;entryY=0;entryDx=0;entryDy=0;entryPerimeter=0;" edge="1" parent="WIyWlLk6GJQsqaUBKTNV-1" source="U1w5Cl4XXdJ5cNv1xuHd-12" target="U1w5Cl4XXdJ5cNv1xuHd-13">
          <mxGeometry relative="1" as="geometry" />
        </mxCell>
        <mxCell id="U1w5Cl4XXdJ5cNv1xuHd-20" style="edgeStyle=orthogonalEdgeStyle;rounded=0;orthogonalLoop=1;jettySize=auto;html=1;exitX=0;exitY=0.5;exitDx=0;exitDy=0;exitPerimeter=0;entryX=0.5;entryY=0;entryDx=0;entryDy=0;entryPerimeter=0;" edge="1" parent="WIyWlLk6GJQsqaUBKTNV-1" source="U1w5Cl4XXdJ5cNv1xuHd-11" target="U1w5Cl4XXdJ5cNv1xuHd-13">
          <mxGeometry relative="1" as="geometry">
            <Array as="points">
              <mxPoint x="-800" y="1515" />
              <mxPoint x="-800" y="1680" />
              <mxPoint x="-705" y="1680" />
            </Array>
          </mxGeometry>
        </mxCell>
        <mxCell id="U1w5Cl4XXdJ5cNv1xuHd-21" value="true" style="edgeLabel;html=1;align=center;verticalAlign=middle;resizable=0;points=[];" vertex="1" connectable="0" parent="U1w5Cl4XXdJ5cNv1xuHd-20">
          <mxGeometry x="-0.7834" relative="1" as="geometry">
            <mxPoint as="offset" />
          </mxGeometry>
        </mxCell>
        <mxCell id="U1w5Cl4XXdJ5cNv1xuHd-29" style="edgeStyle=orthogonalEdgeStyle;rounded=0;orthogonalLoop=1;jettySize=auto;html=1;exitX=0.5;exitY=1;exitDx=0;exitDy=0;exitPerimeter=0;entryX=0.5;entryY=0;entryDx=0;entryDy=0;" edge="1" parent="WIyWlLk6GJQsqaUBKTNV-1" source="U1w5Cl4XXdJ5cNv1xuHd-23" target="U1w5Cl4XXdJ5cNv1xuHd-24">
          <mxGeometry relative="1" as="geometry" />
        </mxCell>
        <mxCell id="U1w5Cl4XXdJ5cNv1xuHd-23" value="&lt;font face=&quot;Times New Roman&quot; style=&quot;font-size: 15px;&quot;&gt;start&lt;/font&gt;" style="strokeWidth=2;html=1;shape=mxgraph.flowchart.start_1;whiteSpace=wrap;" vertex="1" parent="WIyWlLk6GJQsqaUBKTNV-1">
          <mxGeometry x="186" y="1195" width="80" height="50" as="geometry" />
        </mxCell>
        <mxCell id="U1w5Cl4XXdJ5cNv1xuHd-24" value="&lt;font face=&quot;Times New Roman&quot;&gt;&lt;span style=&quot;font-size: 15px;&quot;&gt;op dequeue&lt;/span&gt;&lt;/font&gt;" style="rounded=1;whiteSpace=wrap;html=1;absoluteArcSize=1;arcSize=14;strokeWidth=2;" vertex="1" parent="WIyWlLk6GJQsqaUBKTNV-1">
          <mxGeometry x="176" y="1278" width="100" height="40" as="geometry" />
        </mxCell>
        <mxCell id="U1w5Cl4XXdJ5cNv1xuHd-30" value="false" style="edgeStyle=orthogonalEdgeStyle;rounded=0;orthogonalLoop=1;jettySize=auto;html=1;exitX=0.5;exitY=1;exitDx=0;exitDy=0;exitPerimeter=0;entryX=0.5;entryY=0;entryDx=0;entryDy=0;" edge="1" parent="WIyWlLk6GJQsqaUBKTNV-1" source="U1w5Cl4XXdJ5cNv1xuHd-26" target="U1w5Cl4XXdJ5cNv1xuHd-27">
          <mxGeometry relative="1" as="geometry" />
        </mxCell>
        <mxCell id="U1w5Cl4XXdJ5cNv1xuHd-32" style="edgeStyle=orthogonalEdgeStyle;rounded=0;orthogonalLoop=1;jettySize=auto;html=1;exitX=0;exitY=0.5;exitDx=0;exitDy=0;exitPerimeter=0;entryX=0.5;entryY=0;entryDx=0;entryDy=0;" edge="1" parent="WIyWlLk6GJQsqaUBKTNV-1" source="U1w5Cl4XXdJ5cNv1xuHd-26" target="U1w5Cl4XXdJ5cNv1xuHd-31">
          <mxGeometry relative="1" as="geometry" />
        </mxCell>
        <mxCell id="U1w5Cl4XXdJ5cNv1xuHd-33" value="true" style="edgeLabel;html=1;align=center;verticalAlign=middle;resizable=0;points=[];" vertex="1" connectable="0" parent="U1w5Cl4XXdJ5cNv1xuHd-32">
          <mxGeometry x="-0.4992" y="1" relative="1" as="geometry">
            <mxPoint as="offset" />
          </mxGeometry>
        </mxCell>
        <mxCell id="U1w5Cl4XXdJ5cNv1xuHd-26" value="&lt;font style=&quot;font-size: 15px;&quot; face=&quot;Times New Roman&quot;&gt;backoff&lt;/font&gt;" style="strokeWidth=2;html=1;shape=mxgraph.flowchart.decision;whiteSpace=wrap;" vertex="1" parent="WIyWlLk6GJQsqaUBKTNV-1">
          <mxGeometry x="179.75" y="1355" width="92.5" height="60" as="geometry" />
        </mxCell>
        <mxCell id="U1w5Cl4XXdJ5cNv1xuHd-36" style="edgeStyle=orthogonalEdgeStyle;rounded=0;orthogonalLoop=1;jettySize=auto;html=1;exitX=0.5;exitY=1;exitDx=0;exitDy=0;" edge="1" parent="WIyWlLk6GJQsqaUBKTNV-1" source="U1w5Cl4XXdJ5cNv1xuHd-27">
          <mxGeometry relative="1" as="geometry">
            <mxPoint x="226" y="1575" as="targetPoint" />
          </mxGeometry>
        </mxCell>
        <mxCell id="U1w5Cl4XXdJ5cNv1xuHd-27" value="&lt;font style=&quot;font-size: 15px;&quot; face=&quot;Times New Roman&quot;&gt;process&lt;/font&gt;" style="rounded=1;whiteSpace=wrap;html=1;absoluteArcSize=1;arcSize=14;strokeWidth=2;fillColor=#fff2cc;strokeColor=#d6b656;" vertex="1" parent="WIyWlLk6GJQsqaUBKTNV-1">
          <mxGeometry x="176" y="1455" width="100" height="40" as="geometry" />
        </mxCell>
        <mxCell id="U1w5Cl4XXdJ5cNv1xuHd-28" style="edgeStyle=orthogonalEdgeStyle;rounded=0;orthogonalLoop=1;jettySize=auto;html=1;exitX=0.5;exitY=1;exitDx=0;exitDy=0;entryX=0.5;entryY=0;entryDx=0;entryDy=0;entryPerimeter=0;" edge="1" parent="WIyWlLk6GJQsqaUBKTNV-1" source="U1w5Cl4XXdJ5cNv1xuHd-24" target="U1w5Cl4XXdJ5cNv1xuHd-26">
          <mxGeometry relative="1" as="geometry" />
        </mxCell>
        <mxCell id="U1w5Cl4XXdJ5cNv1xuHd-35" style="edgeStyle=orthogonalEdgeStyle;rounded=0;orthogonalLoop=1;jettySize=auto;html=1;exitX=0.5;exitY=1;exitDx=0;exitDy=0;" edge="1" parent="WIyWlLk6GJQsqaUBKTNV-1" source="U1w5Cl4XXdJ5cNv1xuHd-31" target="U1w5Cl4XXdJ5cNv1xuHd-34">
          <mxGeometry relative="1" as="geometry" />
        </mxCell>
        <mxCell id="U1w5Cl4XXdJ5cNv1xuHd-31" value="&lt;div data-morpho-block-id=&quot;docyg-2cb7d0c1-a724-11ef-acb9-47eefe7e204d&quot; class=&quot;mp-block-code-container&quot;&gt;&lt;pre style=&quot;overflow:auto&quot; class=&quot;mp-block-code-wrapper language-cpp&quot; data-view=&quot;code&quot; data-indent=&quot;0&quot; data-autowrap=&quot;false&quot; data-lang=&quot;cpp&quot; data-title=&quot;&quot; spellcheck=&quot;false&quot;&gt;&lt;div style=&quot;overflow:auto&quot; class=&quot;mp-block-code-content&quot;&gt;&lt;div data-text-content=&quot;&quot; class=&quot;mp-block-code-line&quot;&gt;&lt;span class=&quot;mp-block-code-line-content&quot;&gt;&lt;font style=&quot;font-size: 15px;&quot; face=&quot;Times New Roman&quot;&gt;add_pg_backoff&lt;/font&gt;&lt;/span&gt;&lt;/div&gt;&lt;/div&gt;&lt;/pre&gt;&lt;/div&gt;&lt;span class=&quot;mp-morpho-clipboard-doc-data&quot; data-morpho-doc-data=&quot;{&amp;quot;token&amp;quot;:&amp;quot;eyJhbGciOiJkaXIiLCJlbmMiOiJBMjU2R0NNIiwiYXBwSWQiOjEsInVpZCI6IlJwZjc3dm04TEUiLCJkb2NJZCI6InA1akJ1VllRQU9MX0IyIn0..MZDtKFkFQTlGJ8MC.aDaDxI_EinaNMKY9jjZV700NFYcS0YW0zk7ayk-DiJGO3N3S66tyYHH0j371GUDVrIQJL9d3-qEqKE9PYFEJRVh-kbnZ5zRWzxFcASqiscKPwq9REfCqIlF_kGmAo9mJ8rU3PhqWoFYz_juT_r-jXPNIgs_IecfH0P-RgJFbQ_LCheDi5WE2Oov2HN13xUEcA_zCnDivd8Q_zoicypyFRY-GZA.uTiKGGI4jxvv-MYLlxSpGw&amp;quot;,&amp;quot;appId&amp;quot;:&amp;quot;1&amp;quot;}&quot;&gt;&lt;/span&gt;" style="rounded=1;whiteSpace=wrap;html=1;absoluteArcSize=1;arcSize=14;strokeWidth=2;fillColor=#fff2cc;strokeColor=#d6b656;" vertex="1" parent="WIyWlLk6GJQsqaUBKTNV-1">
          <mxGeometry x="31" y="1450" width="120" height="40" as="geometry" />
        </mxCell>
        <mxCell id="U1w5Cl4XXdJ5cNv1xuHd-34" value="terminator" style="strokeWidth=2;html=1;shape=mxgraph.flowchart.terminator;whiteSpace=wrap;" vertex="1" parent="WIyWlLk6GJQsqaUBKTNV-1">
          <mxGeometry x="186.75" y="1575" width="78.5" height="50" as="geometry" />
        </mxCell>
        <mxCell id="U1w5Cl4XXdJ5cNv1xuHd-37" value="&lt;div data-morpho-block-id=&quot;docyg-2cb7d0c1-a724-11ef-acb9-47eefe7e204d&quot; class=&quot;mp-block-code-container&quot;&gt;&lt;pre style=&quot;overflow:auto&quot; class=&quot;mp-block-code-wrapper language-cpp&quot; data-view=&quot;code&quot; data-indent=&quot;0&quot; data-autowrap=&quot;false&quot; data-lang=&quot;cpp&quot; data-title=&quot;&quot; spellcheck=&quot;false&quot;&gt;&lt;div style=&quot;overflow: auto; font-size: 15px;&quot; class=&quot;mp-block-code-content&quot;&gt;&lt;div data-text-content=&quot;&quot; class=&quot;mp-block-code-line&quot;&gt;&lt;p style=&quot;margin: 0px; font-variant-numeric: normal; font-variant-east-asian: normal; font-variant-alternates: normal; font-size-adjust: none; font-kerning: auto; font-optical-sizing: auto; font-feature-settings: normal; font-variation-settings: normal; font-variant-position: normal; font-stretch: normal; line-height: normal; white-space: normal;&quot; class=&quot;p1&quot;&gt;&lt;font style=&quot;font-size: 15px;&quot; face=&quot;Times New Roman&quot;&gt;&lt;span style=&quot;&quot; class=&quot;Apple-converted-space&quot;&gt;&amp;nbsp;&lt;/span&gt;state_set(PG_STATE_ACTIVATING);&lt;/font&gt;&lt;/p&gt;&lt;p style=&quot;margin: 0px; font-variant-numeric: normal; font-variant-east-asian: normal; font-variant-alternates: normal; font-size-adjust: none; font-kerning: auto; font-optical-sizing: auto; font-feature-settings: normal; font-variation-settings: normal; font-variant-position: normal; font-stretch: normal; line-height: normal; white-space: normal;&quot; class=&quot;p1&quot;&gt;&lt;font style=&quot;font-size: 15px;&quot; face=&quot;Times New Roman&quot;&gt;&lt;span style=&quot;&quot; class=&quot;Apple-converted-space&quot;&gt;&amp;nbsp;&lt;/span&gt;release_pg_backoffs();&lt;/font&gt;&lt;/p&gt;&lt;/div&gt;&lt;/div&gt;&lt;/pre&gt;&lt;/div&gt;&lt;span class=&quot;mp-morpho-clipboard-doc-data&quot; data-morpho-doc-data=&quot;{&amp;quot;token&amp;quot;:&amp;quot;eyJhbGciOiJkaXIiLCJlbmMiOiJBMjU2R0NNIiwiYXBwSWQiOjEsInVpZCI6IlJwZjc3dm04TEUiLCJkb2NJZCI6InA1akJ1VllRQU9MX0IyIn0..MZDtKFkFQTlGJ8MC.aDaDxI_EinaNMKY9jjZV700NFYcS0YW0zk7ayk-DiJGO3N3S66tyYHH0j371GUDVrIQJL9d3-qEqKE9PYFEJRVh-kbnZ5zRWzxFcASqiscKPwq9REfCqIlF_kGmAo9mJ8rU3PhqWoFYz_juT_r-jXPNIgs_IecfH0P-RgJFbQ_LCheDi5WE2Oov2HN13xUEcA_zCnDivd8Q_zoicypyFRY-GZA.uTiKGGI4jxvv-MYLlxSpGw&amp;quot;,&amp;quot;appId&amp;quot;:&amp;quot;1&amp;quot;}&quot;&gt;&lt;/span&gt;" style="rounded=1;whiteSpace=wrap;html=1;absoluteArcSize=1;arcSize=14;strokeWidth=2;align=left;fillColor=#fff2cc;strokeColor=#d6b656;" vertex="1" parent="WIyWlLk6GJQsqaUBKTNV-1">
          <mxGeometry x="31" y="1760" width="259" height="66" as="geometry" />
        </mxCell>
        <mxCell id="U1w5Cl4XXdJ5cNv1xuHd-38" value="" style="endArrow=classic;html=1;rounded=0;dashed=1;curved=0;shape=flexArrow;fillColor=#f8cecc;strokeColor=#b85450;" edge="1" parent="WIyWlLk6GJQsqaUBKTNV-1">
          <mxGeometry width="50" height="50" relative="1" as="geometry">
            <mxPoint x="-590" y="1195" as="sourcePoint" />
            <mxPoint x="-280" y="1195" as="targetPoint" />
          </mxGeometry>
        </mxCell>
        <mxCell id="U1w5Cl4XXdJ5cNv1xuHd-39" value="" style="endArrow=classic;html=1;rounded=0;dashed=1;shape=flexArrow;fillColor=#f8cecc;strokeColor=#b85450;" edge="1" parent="WIyWlLk6GJQsqaUBKTNV-1">
          <mxGeometry width="50" height="50" relative="1" as="geometry">
            <mxPoint x="-280" y="1720" as="sourcePoint" />
            <mxPoint x="-590" y="1720" as="targetPoint" />
          </mxGeometry>
        </mxCell>
        <mxCell id="U1w5Cl4XXdJ5cNv1xuHd-40" value="④ finish op，返回结果&lt;div&gt;notify 同步等待的 frontend Thread&lt;/div&gt;" style="text;html=1;align=center;verticalAlign=middle;resizable=0;points=[];autosize=1;strokeColor=#b85450;fillColor=#f8cecc;" vertex="1" parent="WIyWlLk6GJQsqaUBKTNV-1">
          <mxGeometry x="-541" y="1667" width="200" height="40" as="geometry" />
        </mxCell>
        <mxCell id="U1w5Cl4XXdJ5cNv1xuHd-41" value="" style="endArrow=classic;html=1;rounded=0;dashed=1;shape=flexArrow;fillColor=#f8cecc;strokeColor=#b85450;" edge="1" parent="WIyWlLk6GJQsqaUBKTNV-1">
          <mxGeometry width="50" height="50" relative="1" as="geometry">
            <mxPoint x="-280" y="1294" as="sourcePoint" />
            <mxPoint y="1294" as="targetPoint" />
          </mxGeometry>
        </mxCell>
        <mxCell id="U1w5Cl4XXdJ5cNv1xuHd-42" value="" style="endArrow=classic;html=1;rounded=0;dashed=1;shape=flexArrow;fillColor=#f8cecc;strokeColor=#b85450;" edge="1" parent="WIyWlLk6GJQsqaUBKTNV-1">
          <mxGeometry width="50" height="50" relative="1" as="geometry">
            <mxPoint y="1600" as="sourcePoint" />
            <mxPoint x="-280" y="1601" as="targetPoint" />
          </mxGeometry>
        </mxCell>
        <mxCell id="U1w5Cl4XXdJ5cNv1xuHd-43" value="" style="endArrow=classic;html=1;rounded=0;dashed=1;fillColor=#e1d5e7;strokeColor=#9673a6;shape=arrow;" edge="1" parent="WIyWlLk6GJQsqaUBKTNV-1">
          <mxGeometry width="50" height="50" relative="1" as="geometry">
            <mxPoint y="1470" as="sourcePoint" />
            <mxPoint x="-280" y="1470" as="targetPoint" />
          </mxGeometry>
        </mxCell>
        <mxCell id="U1w5Cl4XXdJ5cNv1xuHd-44" value="" style="endArrow=classic;html=1;rounded=0;dashed=1;fillColor=#e1d5e7;strokeColor=#9673a6;shape=flexArrow;" edge="1" parent="WIyWlLk6GJQsqaUBKTNV-1">
          <mxGeometry width="50" height="50" relative="1" as="geometry">
            <mxPoint y="1799.52" as="sourcePoint" />
            <mxPoint x="-280" y="1799.4099999999999" as="targetPoint" />
          </mxGeometry>
        </mxCell>
        <mxCell id="U1w5Cl4XXdJ5cNv1xuHd-45" value="① 加入待发送列表" style="text;html=1;align=center;verticalAlign=middle;resizable=0;points=[];autosize=1;strokeColor=#b85450;fillColor=#f8cecc;" vertex="1" parent="WIyWlLk6GJQsqaUBKTNV-1">
          <mxGeometry x="-500" y="1155" width="120" height="30" as="geometry" />
        </mxCell>
        <mxCell id="U1w5Cl4XXdJ5cNv1xuHd-49" value="查看对象是否被 backoff&lt;div&gt;是则不发送&lt;/div&gt;" style="text;html=1;align=center;verticalAlign=middle;resizable=0;points=[];autosize=1;strokeColor=#9673a6;fillColor=#e1d5e7;" vertex="1" parent="WIyWlLk6GJQsqaUBKTNV-1">
          <mxGeometry x="-440" y="1230" width="150" height="40" as="geometry" />
        </mxCell>
        <mxCell id="U1w5Cl4XXdJ5cNv1xuHd-50" value="② 非 backoff，send op" style="text;html=1;align=center;verticalAlign=middle;resizable=0;points=[];autosize=1;strokeColor=#b85450;fillColor=#f8cecc;" vertex="1" parent="WIyWlLk6GJQsqaUBKTNV-1">
          <mxGeometry x="-215" y="1248" width="150" height="30" as="geometry" />
        </mxCell>
        <mxCell id="U1w5Cl4XXdJ5cNv1xuHd-51" value="③ 处理完成" style="text;html=1;align=center;verticalAlign=middle;resizable=0;points=[];autosize=1;strokeColor=#b85450;fillColor=#f8cecc;" vertex="1" parent="WIyWlLk6GJQsqaUBKTNV-1">
          <mxGeometry x="-180" y="1560" width="90" height="30" as="geometry" />
        </mxCell>
        <mxCell id="U1w5Cl4XXdJ5cNv1xuHd-52" value="① 设置 backoff 及 回应 ack" style="text;html=1;align=center;verticalAlign=middle;resizable=0;points=[];autosize=1;strokeColor=#9673a6;fillColor=#e1d5e7;" vertex="1" parent="WIyWlLk6GJQsqaUBKTNV-1">
          <mxGeometry x="-222" y="1428" width="170" height="30" as="geometry" />
        </mxCell>
        <mxCell id="U1w5Cl4XXdJ5cNv1xuHd-53" value="" style="endArrow=classic;html=1;rounded=0;dashed=1;fillColor=#e1d5e7;strokeColor=#9673a6;shape=arrow;" edge="1" parent="WIyWlLk6GJQsqaUBKTNV-1">
          <mxGeometry width="50" height="50" relative="1" as="geometry">
            <mxPoint x="-280" y="1500" as="sourcePoint" />
            <mxPoint y="1500" as="targetPoint" />
          </mxGeometry>
        </mxCell>
        <mxCell id="U1w5Cl4XXdJ5cNv1xuHd-54" value="② 解除 backoff" style="text;html=1;align=center;verticalAlign=middle;resizable=0;points=[];autosize=1;strokeColor=#9673a6;fillColor=#e1d5e7;" vertex="1" parent="WIyWlLk6GJQsqaUBKTNV-1">
          <mxGeometry x="-188" y="1758" width="100" height="30" as="geometry" />
        </mxCell>
        <mxCell id="U1w5Cl4XXdJ5cNv1xuHd-55" value="将对应的 pg 中的 对象范围&lt;div&gt;加入 backoff 列表&lt;/div&gt;" style="text;html=1;align=center;verticalAlign=middle;resizable=0;points=[];autosize=1;strokeColor=#9673a6;fillColor=#e1d5e7;" vertex="1" parent="WIyWlLk6GJQsqaUBKTNV-1">
          <mxGeometry x="-456" y="1455" width="170" height="40" as="geometry" />
        </mxCell>
        <mxCell id="U1w5Cl4XXdJ5cNv1xuHd-56" value="&lt;ol style=&quot;margin-bottom: 0px; margin-top: 0px; padding-left: 15px;&quot;&gt;&lt;li&gt;去除 backfofs 数组中相应范围&lt;/li&gt;&lt;li&gt;遍历 ops 数组，处于 解除backoff 区间的重新发送重新走步骤 ②&lt;/li&gt;&lt;/ol&gt;" style="text;html=1;align=left;verticalAlign=middle;resizable=0;points=[];autosize=1;strokeColor=#9673a6;fillColor=#e1d5e7;imageWidth=24;imageAspect=0;imageHeight=20;absoluteArcSize=0;overflow=width;portConstraint=east;snapToPoint=0;fixDash=1;collapsible=1;container=0;dropTarget=0;metaEdit=0;resizeHeight=0;resizeWidth=0;noLabel=0;deletable=0;cloneable=0;rotatable=0;portConstraintRotation=1;expand=1;fillOpacity=100;perimeter=centerPerimeter;recursiveResize=1;editable=1;movable=1;locked=0;connectable=1;strokeOpacity=100;backgroundOutline=1;linecap=square;comic=0;enumerate=0;treeMoving=0;treeFolding=0;fixedWidth=0;imageVerticalAlign=top;whiteSpace=wrap;" vertex="1" collapsed="1" parent="WIyWlLk6GJQsqaUBKTNV-1">
          <mxGeometry x="-580" y="1765" width="290" height="56" as="geometry">
            <mxRectangle x="-600" y="1958" width="260" height="60" as="alternateBounds" />
          </mxGeometry>
        </mxCell>
        <mxCell id="U1w5Cl4XXdJ5cNv1xuHd-59" value="&lt;font style=&quot;font-size: 15px;&quot; face=&quot;Times New Roman&quot;&gt;struct&amp;nbsp; OSDBackoff {&lt;/font&gt;&lt;div style=&quot;font-size: 15px;&quot;&gt;&lt;font style=&quot;font-size: 15px;&quot; face=&quot;Times New Roman&quot;&gt;&lt;span style=&quot;white-space: pre;&quot;&gt;&#x9;&lt;/span&gt;spg_t pgid;&lt;br&gt;&lt;/font&gt;&lt;/div&gt;&lt;div style=&quot;font-size: 15px;&quot;&gt;&lt;font style=&quot;font-size: 15px;&quot; face=&quot;Times New Roman&quot;&gt;&lt;span style=&quot;white-space: pre;&quot;&gt;&#x9;&lt;/span&gt;uint64_t id;&lt;br&gt;&lt;/font&gt;&lt;/div&gt;&lt;div style=&quot;font-size: 15px;&quot;&gt;&lt;font style=&quot;font-size: 15px;&quot; face=&quot;Times New Roman&quot;&gt;&lt;span style=&quot;white-space: pre;&quot;&gt;&#x9;&lt;/span&gt;hobject begin, end;&lt;br&gt;&lt;/font&gt;&lt;/div&gt;&lt;div style=&quot;font-size: 15px;&quot;&gt;&lt;font style=&quot;font-size: 15px;&quot; face=&quot;Times New Roman&quot;&gt;};&lt;/font&gt;&lt;/div&gt;" style="text;html=1;align=left;verticalAlign=middle;whiteSpace=wrap;rounded=0;fillColor=#fff2cc;strokeColor=#d6b656;" vertex="1" parent="WIyWlLk6GJQsqaUBKTNV-1">
          <mxGeometry x="-240" y="1015" width="230" height="90" as="geometry" />
        </mxCell>
        <mxCell id="U1w5Cl4XXdJ5cNv1xuHd-62" value="正常处理流程" style="text;html=1;align=center;verticalAlign=middle;resizable=1;points=[];autosize=1;strokeColor=#b85450;fillColor=#f8cecc;fontFamily=Helvetica;fontSize=15;" vertex="1" parent="WIyWlLk6GJQsqaUBKTNV-1">
          <mxGeometry x="140" y="1038" width="140" height="30" as="geometry" />
        </mxCell>
        <mxCell id="U1w5Cl4XXdJ5cNv1xuHd-63" value="backoff 处理流程" style="text;html=1;align=center;verticalAlign=middle;resizable=0;points=[];autosize=1;strokeColor=#9673a6;fillColor=#e1d5e7;fontFamily=Helvetica;fontSize=15;" vertex="1" parent="WIyWlLk6GJQsqaUBKTNV-1">
          <mxGeometry x="140" y="1075" width="140" height="30" as="geometry" />
        </mxCell>
      </root>
    </mxGraphModel>
  </diagram>
</mxfile>
